<svg width="20" height="20" viewBox="0 0 20 20" fill="none" xmlns="http://www.w3.org/2000/svg">
<g clip-path="url(#clip0_802_116)">
<path d="M10.8332 5.83335L7.24983 2.25002C6.87348 1.87548 6.36413 1.66522 5.83317 1.66522C5.30221 1.66522 4.79285 1.87548 4.4165 2.25002L2.24984 4.41668C1.8753 4.79304 1.66504 5.30239 1.66504 5.83335C1.66504 6.36431 1.8753 6.87367 2.24984 7.25002L5.83317 10.8334" stroke="white" stroke-width="1.65244" stroke-linecap="round" stroke-linejoin="round"/>
<path d="M6.6665 5.00004L8.33317 3.33337" stroke="white" stroke-width="1.65244" stroke-linecap="round" stroke-linejoin="round"/>
<path d="M15 13.3334L16.6667 11.6667" stroke="white" stroke-width="1.65244" stroke-linecap="round" stroke-linejoin="round"/>
<path d="M14.1665 9.16669L17.7498 12.75C18.5332 13.5334 18.5332 14.8 17.7498 15.5834L15.5832 17.75C14.7998 18.5334 13.5332 18.5334 12.7498 17.75L9.1665 14.1667" stroke="white" stroke-width="1.65244" stroke-linecap="round" stroke-linejoin="round"/>
<path d="M17.6448 5.6767C18.0854 5.23622 18.3329 4.63876 18.333 4.01574C18.3331 3.39273 18.0857 2.79521 17.6452 2.35462C17.2047 1.91403 16.6073 1.66646 15.9842 1.66638C15.3612 1.6663 14.7637 1.91372 14.3231 2.3542L3.20145 13.4784C3.00797 13.6713 2.86488 13.9088 2.78478 14.17L1.68395 17.7967C1.66241 17.8688 1.66079 17.9453 1.67924 18.0182C1.6977 18.0912 1.73555 18.1577 1.78878 18.2109C1.84201 18.264 1.90863 18.3018 1.98158 18.3201C2.05453 18.3384 2.13108 18.3367 2.20312 18.315L5.83062 17.215C6.09159 17.1357 6.32909 16.9934 6.52228 16.8009L17.6448 5.6767Z" stroke="white" stroke-width="1.65244" stroke-linecap="round" stroke-linejoin="round"/>
<path d="M12.5 4.16669L15.8333 7.50002" stroke="white" stroke-width="1.65244" stroke-linecap="round" stroke-linejoin="round"/>
</g>
<defs>
<clipPath id="clip0_802_116">
<rect width="20" height="20" fill="white"/>
</clipPath>
</defs>
</svg>
