<svg width="472" height="687" viewBox="0 0 472 687" fill="none" xmlns="http://www.w3.org/2000/svg">
<path d="M0 40C0 17.9086 17.9086 0 40 0H432C454.091 0 472 17.9086 472 40V359.842C472 375.22 463.185 389.236 449.324 395.896L209.909 510.94C205.021 513.289 200.661 516.607 197.095 520.693L71.8507 664.211C55.9754 682.402 26.6159 678.145 16.5617 656.193V656.193C11.3148 644.737 12.9931 631.3 20.8964 621.487L410.5 137.73L73.7645 667.869C52.2988 701.663 0 686.458 0 646.422V40Z" fill="url(#paint0_linear_848_2)"/>
<defs>
<linearGradient id="paint0_linear_848_2" x1="224.494" y1="-48.6105" x2="224.494" y2="735.389" gradientUnits="userSpaceOnUse">
<stop stop-color="#D9D9D9"/>
<stop offset="1" stop-color="#C6C3C3"/>
</linearGradient>
</defs>
</svg>
